<svg xmlns="http://www.w3.org/2000/svg" width="663" height="316" viewBox="0 0 663 316" fill="none">
<path d="M127.681 168.113C183.838 192.861 195.68 242.432 195.833 271.968C195.987 301.503 173.233 308.784 155.647 293.561C108.515 252.763 102.036 68.3297 238.036 32.3294" stroke="#5865F2" stroke-width="28.2738" stroke-linecap="round"/>
<path d="M386.536 79.83C429.536 79.83 499.912 133.436 456.036 228.33C434.536 274.83 475.858 292.872 498.179 285.432C533.149 273.775 533.369 221.425 550.036 183.33C556.547 168.449 566.749 269.062 617.971 269.062C669.192 269.062 653.036 151.33 596.536 115.83" stroke="#5865F2" stroke-width="28.2738" stroke-linecap="round"/>
<path d="M279.5 86.5C250.5 112.5 160.843 196.691 14.9406 153.973" stroke="#5865F2" stroke-width="28" stroke-linecap="round"/>
<path d="M279.5 86.5001C212.5 146.5 234.5 253.5 329.036 292.33" stroke="#5865F2" stroke-width="28" stroke-linecap="round"/>
<path d="M387.705 125.907C374.53 125.907 362.737 132.312 355.386 142.139C348.034 132.312 336.241 125.907 323.066 125.907C300.719 125.907 282.594 144.104 282.594 166.597C282.594 175.259 283.977 183.266 286.38 190.691C297.881 227.087 333.33 248.851 350.872 254.82C353.347 255.694 357.424 255.694 359.899 254.82C377.441 248.851 412.891 227.087 424.392 190.691C426.794 183.266 428.177 175.259 428.177 166.597C428.177 144.104 410.052 125.907 387.705 125.907Z" fill="#DD2334"/>
</svg>